<svg width="296" height="111" viewBox="0 0 296 111" fill="none" xmlns="http://www.w3.org/2000/svg">
<path d="M94.9622 53.5558H105.382V57.9292H94.9622V66.397H90.1567V44.5254H106.784V48.8988H94.9576V53.5558H94.9622ZM119.661 44.3699L129.02 66.397H123.996L122 61.4929H112.763L110.767 66.397H105.87L115.23 44.3699H119.661ZM120.282 57.243L117.381 50.1523L114.481 57.243H120.282ZM145.881 57.9933L135.648 44.5254H131.218V66.397H135.959V52.4899L146.538 66.397H150.627V44.5254H145.885V57.9933H145.881ZM164.362 53.3088C160.589 52.339 159.653 51.8724 159.653 50.4359V50.3719C159.653 49.3105 160.621 48.4642 162.462 48.4642C164.303 48.4642 166.208 49.2785 168.14 50.6189L170.639 46.9958C168.423 45.2162 165.71 44.2144 162.526 44.2144C158.063 44.2144 154.884 46.8402 154.884 50.8065V50.8705C154.884 55.2119 157.725 56.4333 162.124 57.5587C165.774 58.4965 166.523 59.1232 166.523 60.3401V60.4041C166.523 61.685 165.335 62.4673 163.371 62.4673C160.877 62.4673 158.817 61.438 156.853 59.814L154.011 63.2176C156.633 65.5598 159.973 66.7172 163.28 66.7172C167.989 66.7172 171.296 64.2789 171.296 59.9375V59.8735C171.292 56.0582 168.793 54.4616 164.362 53.3088ZM188.778 53.1807H179.916V44.5254H175.111V66.397H179.916V57.6182H188.778V66.397H193.583V44.5254H188.778V53.1807ZM209.964 44.3699L219.323 66.397H214.299L212.302 61.4929H203.066L201.07 66.397H196.173L205.533 44.3699H209.964ZM210.585 57.243L207.684 50.1523L204.784 57.243H210.585ZM240.71 59.3382L235.809 44.466H231.693L226.796 59.3382L222.27 44.5254H217.122L224.581 66.5525H228.761L233.689 52.2429L238.618 66.5525H242.798L250.257 44.5254H245.232L240.71 59.3382ZM257.808 62.1196V57.5267H268.104V53.2448H257.808V48.8073H269.506V44.5254H253.034V66.397H269.662V62.1151H257.808V62.1196Z" fill="white"/>
<path d="M36.2643 41.9498L36.2506 34.9779C36.2597 34.8773 36.3465 34.7721 36.4516 34.7492C36.5292 34.7355 36.6206 34.7446 36.6982 34.827L47.209 45.3579L50.2009 42.3615L43.815 35.9569L43.8105 35.9523C43.5227 35.6916 43.3582 35.3165 43.3582 34.9276C43.3582 34.9139 43.3628 27.9284 43.3628 27.9284C43.3674 27.8323 43.445 27.7179 43.5638 27.6905C43.6277 27.6768 43.7282 27.6722 43.8242 27.7683L54.2847 38.2717L64.7452 27.7683C64.8137 27.7042 64.8822 27.6768 64.9461 27.6768C65.0603 27.6768 65.2111 27.7591 65.2111 27.9375C65.2111 27.9375 65.2111 35.0145 65.2111 35.0283C65.2111 35.4171 64.9598 35.8471 64.6218 36.1399L64.599 36.1628L47.6795 53.0937C47.6566 53.112 47.4968 53.3178 47.2135 53.3178C46.9943 53.3178 46.8572 53.1989 46.8116 53.1577L36.6937 43.0385C36.6937 43.0385 36.2095 42.5902 36.2643 41.9498ZM52.2154 62.5999C52.2154 62.3162 52.0098 62.1561 51.9916 62.1332L35.0812 45.1886L35.0584 45.1658C34.766 44.8227 34.3366 44.5756 33.9529 44.5756C33.9392 44.5756 26.8727 44.5756 26.8727 44.5756C26.6945 44.5756 26.6123 44.7266 26.6123 44.841C26.6123 44.9004 26.6351 44.9736 26.7037 45.0422L37.1916 55.5183L26.7037 65.9943C26.6077 66.0903 26.6123 66.191 26.626 66.255C26.6534 66.374 26.7676 66.4517 26.8635 66.4563C26.8635 66.4563 33.8387 66.4563 33.8524 66.4563C34.2407 66.4563 34.6107 66.2916 34.8756 66.0034L34.8802 65.9988L41.2707 59.5989L44.2627 62.5953L33.7474 73.1216C33.6651 73.1994 33.656 73.2955 33.6697 73.3686C33.6926 73.4784 33.7976 73.5608 33.8981 73.5745L40.8596 73.5608C41.5037 73.6203 41.9513 73.1308 41.9513 73.1308L52.0555 62.9979C52.0966 62.9521 52.2154 62.8194 52.2154 62.5999ZM71.9579 67.9614L61.84 57.8422C61.7897 57.7964 61.6572 57.6821 61.4334 57.6821C61.1502 57.6821 60.9903 57.8879 60.9675 57.9062L44.048 74.8371L44.0251 74.86C43.6826 75.1528 43.4359 75.5828 43.4359 75.9716C43.4359 75.9854 43.4359 83.0578 43.4359 83.0578C43.4359 83.2362 43.5866 83.3186 43.7008 83.3186C43.7602 83.3186 43.8333 83.2957 43.9018 83.2271L54.3623 72.7236L64.8228 83.2271C64.9187 83.3231 65.0192 83.3186 65.0832 83.3049C65.2019 83.2774 65.2796 83.163 65.2842 83.067C65.2842 83.067 65.2887 76.0814 65.2887 76.0677C65.2887 75.6789 65.1243 75.3083 64.8365 75.043L64.8319 75.0384L58.4414 68.6384L61.4334 65.642L71.9442 76.1729C72.0218 76.2553 72.1177 76.2644 72.1908 76.2507C72.3005 76.2278 72.3827 76.1226 72.3918 76.022L72.3781 69.0502C72.4466 68.4097 71.9579 67.9614 71.9579 67.9614ZM71.6016 55.4771L82.0895 45.0011C82.1854 44.905 82.1808 44.8044 82.1671 44.7403C82.1397 44.6214 82.0255 44.5436 81.9296 44.539C81.9296 44.539 74.9544 44.539 74.9407 44.539C74.5524 44.539 74.1824 44.7037 73.9175 44.9919L73.9129 44.9965L67.5224 51.3965L64.5305 48.4001L75.0458 37.8737C75.128 37.7959 75.1371 37.6999 75.1234 37.6267C75.1006 37.5169 74.9955 37.4345 74.895 37.4254L67.9335 37.4391C67.2895 37.3842 66.8418 37.8691 66.8418 37.8691L56.7376 47.9975C56.6919 48.0478 56.5777 48.1805 56.5777 48.4046C56.5777 48.6883 56.7833 48.8484 56.8016 48.8712L73.7074 65.8159L73.7302 65.8387C74.0226 66.1818 74.4519 66.4289 74.8356 66.4289C74.8493 66.4289 81.9159 66.4289 81.9159 66.4289C82.094 66.4289 82.1763 66.2779 82.1763 66.1635C82.1763 66.1041 82.1534 66.0309 82.0849 65.9622L71.6016 55.4771Z" fill="white"/>
</svg>
